<svg xmlns="http://www.w3.org/2000/svg" viewBox="0 0 380 440" fill="none" role="img" aria-label="Un jeune garçon qui apprend à coder sur un ordinateur portable">
  <defs>
    <linearGradient id="bgg" x1="0" y1="0" x2="1" y2="1">
      <stop offset="0" stop-color="#EEF0FE"/>
      <stop offset="1" stop-color="#E2E7FD"/>
    </linearGradient>
    <linearGradient id="scr" x1="0" y1="0" x2="0" y2="1">
      <stop offset="0" stop-color="#1E293B"/>
      <stop offset="1" stop-color="#0F172A"/>
    </linearGradient>
  </defs>

  <!-- background -->
  <circle cx="190" cy="208" r="178" fill="url(#bgg)"/>
  <circle cx="190" cy="200" r="146" fill="#fff" opacity=".45"/>

  <!-- floating badges -->
  <g opacity=".95">
    <rect x="44" y="86" width="44" height="44" rx="11" fill="#FFC233" transform="rotate(-12 66 108)"/>
    <text x="66" y="115" transform="rotate(-12 66 108)" font-family="ui-monospace,Menlo,monospace" font-size="19" font-weight="800" fill="#fff" text-anchor="middle">&lt;/&gt;</text>
  </g>
  <g opacity=".95">
    <rect x="296" y="70" width="42" height="42" rx="11" fill="#14B8A6" transform="rotate(10 317 91)"/>
    <text x="317" y="99" transform="rotate(10 317 91)" font-family="ui-monospace,Menlo,monospace" font-size="20" font-weight="800" fill="#fff" text-anchor="middle">{ }</text>
  </g>
  <path d="M316 184l4.2 9.1 9.8 1.2-7.3 6.7 1.9 9.8-8.6-4.8-8.6 4.8 1.9-9.8-7.3-6.7 9.8-1.2z" fill="#4F46E5" opacity=".9"/>
  <circle cx="58" cy="232" r="11" fill="#10B981" opacity=".9"/>

  <!-- chair back -->
  <rect x="118" y="232" width="144" height="150" rx="34" fill="#C7CBF2"/>
  <rect x="132" y="248" width="116" height="120" rx="26" fill="#D8DBF7"/>

  <!-- boy -->
  <!-- neck -->
  <rect x="176" y="196" width="28" height="34" rx="13" fill="#E8AE83"/>
  <!-- torso / hoodie -->
  <path d="M120 360c0-58 31-92 70-92s70 34 70 92v6H120z" fill="#4F46E5"/>
  <path d="M163 270c5 18 49 18 54 0 14 6 24 18 30 34-30 16-84 16-114 0 6-16 16-28 30-34z" fill="#6366F1"/>
  <!-- collar -->
  <path d="M176 226c4 12 24 12 28 0l-6 20h-16z" fill="#E8AE83"/>
  <!-- arms -->
  <path d="M132 356c-8-26-4-52 18-66l16 22c-12 10-14 28-10 44z" fill="#4F46E5"/>
  <path d="M248 356c8-26 4-52-18-66l-16 22c12 10 14 28 10 44z" fill="#4F46E5"/>

  <!-- head -->
  <circle cx="190" cy="158" r="50" fill="#F4C8A0"/>
  <!-- ears -->
  <circle cx="142" cy="162" r="10" fill="#F4C8A0"/>
  <circle cx="238" cy="162" r="10" fill="#F4C8A0"/>
  <!-- hair -->
  <path d="M141 158c-2-40 28-58 49-58s51 18 49 58c-4-12-10-18-16-21-8 9-58 11-72-1-7 3-7 12-10 22z" fill="#3A2C26"/>
  <path d="M141 158c2-9 4-16 9-20 3 10 14 16 40 16s37-6 40-16c5 4 7 11 9 20-3-30-30-44-49-44s-46 14-49 44z" fill="#2B201C"/>
  <!-- glasses -->
  <g stroke="#1E293B" stroke-width="3.5" fill="#fff" fill-opacity=".25">
    <rect x="155" y="150" width="30" height="24" rx="9"/>
    <rect x="195" y="150" width="30" height="24" rx="9"/>
  </g>
  <path d="M185 160h10" stroke="#1E293B" stroke-width="3.5" stroke-linecap="round"/>
  <!-- eyes -->
  <circle cx="170" cy="162" r="4.5" fill="#1E293B"/>
  <circle cx="210" cy="162" r="4.5" fill="#1E293B"/>
  <!-- eyebrows -->
  <path d="M160 142q10-6 20 0M200 142q10-6 20 0" stroke="#2B201C" stroke-width="3" stroke-linecap="round" fill="none"/>
  <!-- cheeks -->
  <circle cx="158" cy="182" r="7" fill="#F4A9A0" opacity=".55"/>
  <circle cx="222" cy="182" r="7" fill="#F4A9A0" opacity=".55"/>
  <!-- smile -->
  <path d="M174 186q16 14 32 0" stroke="#9C5C3C" stroke-width="3.5" stroke-linecap="round" fill="none"/>

  <!-- laptop -->
  <!-- screen -->
  <rect x="118" y="282" width="144" height="86" rx="10" fill="#0B1220"/>
  <rect x="118" y="282" width="144" height="86" rx="10" fill="url(#scr)"/>
  <rect x="127" y="291" width="126" height="68" rx="5" fill="#0F1B2E"/>
  <!-- traffic dots -->
  <circle cx="135" cy="299" r="2.6" fill="#EF4444"/>
  <circle cx="144" cy="299" r="2.6" fill="#FFC233"/>
  <circle cx="153" cy="299" r="2.6" fill="#10B981"/>
  <!-- code lines -->
  <rect x="135" y="310" width="22" height="5" rx="2.5" fill="#FFC233"/>
  <rect x="161" y="310" width="40" height="5" rx="2.5" fill="#6366F1"/>
  <rect x="143" y="322" width="34" height="5" rx="2.5" fill="#14B8A6"/>
  <rect x="181" y="322" width="28" height="5" rx="2.5" fill="#94A3B8"/>
  <rect x="143" y="334" width="48" height="5" rx="2.5" fill="#10B981"/>
  <rect x="135" y="346" width="26" height="5" rx="2.5" fill="#FFC233"/>
  <rect x="165" y="346" width="30" height="5" rx="2.5" fill="#6366F1"/>
  <!-- keyboard base -->
  <path d="M96 368h188l20 22H76z" fill="#CBD2DE"/>
  <path d="M96 368h188l5 6H91z" fill="#E2E8F0"/>
  <rect x="150" y="380" width="80" height="5" rx="2.5" fill="#AEB7C6"/>
  <!-- hands on keyboard -->
  <ellipse cx="120" cy="372" rx="15" ry="10" fill="#F4C8A0"/>
  <ellipse cx="260" cy="372" rx="15" ry="10" fill="#F4C8A0"/>
</svg>
